<svg viewBox="0 0 1378 292" fill="none" xmlns="http://www.w3.org/2000/svg">
<path d="M123 288L0.600001 7.99998H86.6L136.6 128.4C138.733 133.733 141.133 139.6 143.8 146C146.467 152.133 149.267 158.8 152.2 166C155.133 173.2 157.933 180.933 160.6 189.2C163.267 197.467 165.8 206.4 168.2 216H152.6C156.333 203.733 159.933 192.8 163.4 183.2C166.867 173.6 170.467 164.533 174.2 156C177.933 147.2 181.533 138.133 185 128.8L234.6 7.99998H318.2L197.4 288H123ZM385.522 288V7.99998H536.322C560.322 7.99998 580.455 11.7333 596.722 19.2C613.255 26.4 625.789 36.8 634.322 50.4C642.855 64 647.122 80.2667 647.122 99.2C647.122 118.133 642.455 134.933 633.122 149.6C624.055 164.267 611.389 175.733 595.122 184C579.122 192 560.722 196 539.922 196H466.322V288H385.522ZM564.322 288L477.922 161.6L567.522 151.6L661.922 288H564.322ZM466.322 136H527.922C534.589 136 540.322 134.933 545.122 132.8C550.189 130.4 554.189 126.933 557.122 122.4C560.055 117.867 561.522 112.267 561.522 105.6C561.522 98.9333 560.055 93.4667 557.122 89.2C554.455 84.6667 550.455 81.3333 545.122 79.2C539.789 77.0667 533.655 76 526.722 76H466.322V136ZM899.688 292C875.154 292 852.488 288.533 831.688 281.6C810.888 274.667 792.754 264.667 777.288 251.6C761.821 238.533 749.688 223.067 740.888 205.2C732.354 187.333 728.088 167.6 728.088 146C728.088 124.4 732.354 104.667 740.888 86.8C749.688 68.9333 761.688 53.4667 776.888 40.4C792.354 27.3333 810.488 17.3333 831.288 10.4C852.088 3.46666 874.888 -1.14441e-05 899.688 -1.14441e-05C915.688 -1.14441e-05 931.154 1.73332 946.088 5.19999C961.021 8.39998 975.021 13.0666 988.088 19.2C1001.42 25.3333 1013.29 32.6666 1023.69 41.2L974.088 106C969.021 101.2 962.888 96.6667 955.688 92.4C948.488 88.1333 939.954 84.6667 930.088 82C920.488 79.0667 909.288 77.6 896.488 77.6C886.354 77.6 876.621 79.0667 867.288 82C857.954 84.6667 849.421 88.9333 841.688 94.8C834.221 100.667 828.221 108 823.688 116.8C819.154 125.333 816.888 135.467 816.888 147.2C816.888 158.133 819.288 167.867 824.088 176.4C828.888 184.933 835.421 192.133 843.688 198C851.954 203.867 861.421 208.267 872.088 211.2C882.754 214.133 894.088 215.6 906.088 215.6C918.354 215.6 929.288 213.867 938.888 210.4C948.754 206.667 957.421 202.4 964.888 197.6C972.621 192.533 979.154 187.733 984.488 183.2L1025.29 248.4C1017.55 255.333 1007.15 262.133 994.088 268.8C981.021 275.467 966.354 281.067 950.088 285.6C933.821 289.867 917.021 292 899.688 292ZM1183.86 288V81.6H1079.86V7.99998H1377.06V81.6H1270.26V288H1183.86Z" />
</svg>
