<svg xmlns="http://www.w3.org/2000/svg" viewBox="0 0 24 24"><path d="M13.333 6.805l4.213 7.297-13.256 3.223c-.572.133-1.068.333-1.492.604l-.227-.393c.525-.293.929-.675 1.227-.993l9.535-9.738zm.332-2.626l-11.011 11.244c-.616.66-1.164.977-1.857.977-.244 0-.507-.04-.797-.117l2.646 4.585c.258-1.094.814-1.708 2.006-1.985l15.348-3.732-6.335-10.972zm.31 13.951l-.467 2.118c-.094.378-.391.674-.77.771l-2.951.774c-.365.095-.754-.012-1.018-.28l-1.574-1.712 1.605-.395.646.77c.176.177.433.248.675.186l1.598-.425c.252-.064.449-.261.511-.512l.161-.906 1.584-.389zm8.719-11.267l-2.684 1.613-.756-1.262 2.686-1.612.754 1.261zm-4.396-1.161l-1.335-.616 1.342-2.914 1.335.617-1.342 2.913zm5.619 6.157l-3.202-.174.081-1.469 3.204.175-.083 1.468z"/></svg>